<svg width="188" height="38" viewBox="0 0 188 38" fill="none" xmlns="http://www.w3.org/2000/svg">
<rect width="37.8857" height="37.8857" rx="6.84048" fill="white"/>
<path d="M30.209 13.9463L27.6994 15.7626H28.9972C28.0272 17.3748 23.7766 19.793 18.3813 21.62C11.9059 23.8206 6.24193 24.3741 5.72604 22.8587C5.47885 22.1359 6.45688 21.0692 8.25172 19.9031V18.6295C4.68622 20.5426 2.56089 22.5148 2.98273 23.791C3.64908 25.7552 10.1755 25.3145 17.5564 22.8076C23.6073 20.7495 28.355 17.9417 29.4996 15.9131L30.2143 16.8374L30.209 13.9463Z" fill="url(#paint0_linear_400_262)"/>
<path fill-rule="evenodd" clip-rule="evenodd" d="M28.3268 16.1797C27.2359 17.3324 24.8339 18.7457 21.7681 20.0381L21.1797 20.0864V16.4887L22.0422 16.4752C22.8697 16.4591 24.2159 16.4242 25.734 16.3463C26.5642 16.3033 27.4482 16.2495 28.3268 16.1797Z" fill="#444444"/>
<path fill-rule="evenodd" clip-rule="evenodd" d="M34.1827 15.2041C34.1827 15.2041 33.6641 19.0517 27.4225 19.5676L25.2031 19.753C27.2478 18.5976 28.7713 17.4235 29.5021 16.3783L30.4667 17.6277V15.9699C31.5683 15.8622 32.6586 15.6609 33.7259 15.368L33.7958 15.3465C33.9409 15.2981 34.0672 15.2525 34.1827 15.2041Z" fill="#444444"/>
<path d="M13.2857 22.5902V18.5088C13.2857 18.2522 13.1838 18.0062 13.0024 17.8248C12.821 17.6434 12.575 17.5415 12.3184 17.5415H9.70141C9.44649 17.5443 9.20293 17.6474 9.02342 17.8284C8.84391 18.0094 8.74288 18.2538 8.74219 18.5088V23.2511C10.2734 23.1669 11.794 22.9457 13.2857 22.5902Z" fill="#444444"/>
<path d="M34.4732 20.4886C34.2735 20.0605 34.0227 19.6581 33.7263 19.2903C31.5418 20.1555 28.6857 20.2173 25.7355 20.1555L24.916 20.134C23.7018 20.7935 22.4553 21.3916 21.1812 21.9261V27.3429C21.1757 27.4109 21.1852 27.4794 21.2088 27.5434C21.2325 27.6074 21.2698 27.6655 21.3182 27.7137C21.4209 27.7977 21.5511 27.8408 21.6836 27.8346H29.9646C30.6281 27.8332 31.2835 27.6884 31.8858 27.4101C32.4834 27.1436 33.0249 26.7661 33.4818 26.2977C33.9362 25.8219 34.3004 25.2674 34.5565 24.6614C34.8223 24.0371 34.9576 23.365 34.9542 22.6865C34.9593 21.9272 34.795 21.1764 34.4732 20.4886ZM30.2817 23.2454C30.1994 23.4717 30.0723 23.6791 29.9082 23.8553C29.7518 24.0345 29.562 24.1814 29.3493 24.2879C29.1304 24.3957 28.8894 24.4509 28.6454 24.4491H25.7355V20.6284H28.6454C28.8916 20.6259 29.1345 20.685 29.352 20.8003C29.5657 20.91 29.757 21.0585 29.9163 21.2383C30.0736 21.4201 30.1973 21.6284 30.2817 21.8536C30.3688 22.0716 30.4144 22.304 30.416 22.5387C30.4159 22.7806 30.3703 23.0203 30.2817 23.2454Z" fill="#444444"/>
<path d="M12.434 25.6446H13.2857V24.5242C11.7903 24.8944 10.2727 25.1681 8.74219 25.3437V27.8344H13.2857V26.7435L12.434 25.6446Z" fill="#444444"/>
<path d="M17.6982 23.2352C16.7551 23.5549 15.8174 23.8451 14.8984 24.103V25.6453H15.8308L14.8984 26.8464V27.8351H19.4527V22.6038C18.8804 22.8214 18.2947 23.0337 17.6982 23.2352Z" fill="url(#paint1_linear_400_262)"/>
<path d="M18.652 16.4855L19.4581 15.4537V15.1984C19.4581 14.959 19.363 14.7294 19.1937 14.5601C19.0244 14.3908 18.7947 14.2957 18.5553 14.2957H15.8012C15.5618 14.2957 15.3322 14.3908 15.1629 14.5601C14.9936 14.7294 14.8984 14.959 14.8984 15.1984V22.1844C15.9732 21.8995 17.099 21.561 18.2302 21.1768C18.6493 21.0344 19.0551 20.8893 19.4527 20.7442V16.4855H18.652Z" fill="url(#paint2_linear_400_262)"/>
<path d="M34.1925 14.9832C34.1925 15.0585 34.1925 15.1337 34.1925 15.2036C34.0689 15.2546 33.94 15.3003 33.811 15.346L33.7411 15.3675C32.6845 15.6991 31.5923 15.9047 30.4873 15.9801V13.4221L29.5066 14.1315C29.456 14.0572 29.3984 13.9879 29.3346 13.9246C29.1806 13.7708 28.9981 13.6485 28.7973 13.5646C28.5744 13.4755 28.336 13.4317 28.096 13.4356H25.7396V17.8609C24.2727 18.7117 22.7461 19.4552 21.1719 20.0856V16.4879H22.0451V16.4745L21.6878 16.0123L21.1826 15.3621V11.2135C21.1826 10.905 21.3052 10.609 21.5234 10.3909C21.7416 10.1727 22.0375 10.0501 22.346 10.0501H29.2836C29.9353 10.047 30.5807 10.1768 31.1805 10.4316C31.7629 10.6807 32.2927 11.0381 32.7416 11.4849C33.1956 11.9355 33.5603 12.4679 33.8164 13.054C34.0716 13.6648 34.1996 14.3213 34.1925 14.9832Z" fill="url(#paint3_linear_400_262)"/>
<path d="M50.0494 8.54712V29.4429H46.2641V8.54712H50.0494ZM57.6787 20.2602V29.4429H53.9853V13.7711H57.5155V16.434H57.6991C58.0597 15.5566 58.6344 14.8594 59.4235 14.3424C60.2193 13.8255 61.2022 13.567 62.3721 13.567C63.4536 13.567 64.3957 13.7983 65.1984 14.2608C66.0078 14.7233 66.6336 15.3933 67.0757 16.2708C67.5246 17.1483 67.7457 18.2128 67.7389 19.4643V29.4429H64.0454V20.0357C64.0454 18.9882 63.7733 18.1686 63.2292 17.5768C62.6918 16.985 61.947 16.6891 60.9947 16.6891C60.3485 16.6891 59.7738 16.832 59.2704 17.1176C58.7739 17.3965 58.3827 17.8012 58.0971 18.3318C57.8182 18.8624 57.6787 19.5051 57.6787 20.2602ZM84.931 13.7711L79.3499 29.4429H75.2687L69.6877 13.7711H73.626L77.2277 25.4127H77.3909L81.0028 13.7711H84.931ZM93.8917 29.749C92.3205 29.749 90.9635 29.4225 89.8207 28.7695C88.6848 28.1097 87.8108 27.1778 87.1986 25.9739C86.5864 24.7631 86.2803 23.3381 86.2803 21.6988C86.2803 20.0867 86.5864 18.6719 87.1986 17.4543C87.8176 16.23 88.6814 15.2777 89.7901 14.5975C90.8989 13.9105 92.2014 13.567 93.6979 13.567C94.6638 13.567 95.5752 13.7234 96.4323 14.0363C97.2961 14.3424 98.058 14.8186 98.7178 15.4648C99.3844 16.1109 99.9081 16.934 100.289 17.9339C100.67 18.927 100.86 20.1105 100.86 21.4845V22.6171H88.0148V20.1275H97.32C97.3131 19.4201 97.1601 18.7909 96.8608 18.24C96.5615 17.6822 96.1432 17.2435 95.6058 16.9238C95.0753 16.6041 94.4563 16.4442 93.7489 16.4442C92.9939 16.4442 92.3307 16.6279 91.7593 16.9952C91.1879 17.3557 90.7424 17.8319 90.4227 18.4236C90.1098 19.0086 89.95 19.6514 89.9432 20.352V22.5252C89.9432 23.4367 90.1098 24.2189 90.4431 24.8719C90.7764 25.5181 91.2424 26.0147 91.8409 26.3616C92.4395 26.7017 93.1401 26.8717 93.9428 26.8717C94.4801 26.8717 94.9665 26.7969 95.4018 26.6472C95.8371 26.4908 96.2146 26.2629 96.5343 25.9636C96.854 25.6644 97.0955 25.2937 97.2587 24.8515L100.707 25.2392C100.49 26.1507 100.075 26.9465 99.4626 27.6267C98.8572 28.3001 98.0818 28.8239 97.1363 29.198C96.1908 29.5653 95.1093 29.749 93.8917 29.749ZM116.372 17.9135L113.005 18.2808C112.909 17.9407 112.743 17.621 112.505 17.3217C112.273 17.0224 111.96 16.7809 111.566 16.5973C111.171 16.4136 110.688 16.3218 110.117 16.3218C109.348 16.3218 108.702 16.4885 108.178 16.8218C107.662 17.1551 107.406 17.587 107.413 18.1175C107.406 18.5733 107.573 18.944 107.913 19.2297C108.26 19.5153 108.831 19.75 109.627 19.9337L112.301 20.505C113.783 20.8247 114.885 21.3315 115.606 22.0253C116.334 22.7191 116.701 23.6272 116.708 24.7495C116.701 25.7358 116.412 26.6064 115.841 27.3615C115.276 28.1097 114.491 28.6947 113.484 29.1164C112.477 29.5381 111.321 29.749 110.015 29.749C108.097 29.749 106.553 29.3476 105.383 28.545C104.213 27.7356 103.516 26.6098 103.291 25.1678L106.893 24.8209C107.056 25.5283 107.403 26.0623 107.934 26.4228C108.464 26.7833 109.155 26.9635 110.005 26.9635C110.882 26.9635 111.586 26.7833 112.117 26.4228C112.654 26.0623 112.923 25.6167 112.923 25.0862C112.923 24.6373 112.749 24.2665 112.403 23.9741C112.062 23.6816 111.532 23.4571 110.811 23.3007L108.138 22.7395C106.634 22.4266 105.522 21.8995 104.801 21.158C104.08 20.4098 103.723 19.4643 103.73 18.3216C103.723 17.3557 103.985 16.5191 104.516 15.8117C105.053 15.0975 105.798 14.5465 106.75 14.1588C107.709 13.7643 108.814 13.567 110.066 13.567C111.903 13.567 113.348 13.9581 114.402 14.7403C115.463 15.5226 116.12 16.5803 116.372 17.9135ZM127.58 13.7711V16.6279H118.57V13.7711H127.58ZM120.795 10.0164H124.488V24.7291C124.488 25.2256 124.563 25.6065 124.712 25.8718C124.869 26.1303 125.073 26.3071 125.325 26.4024C125.576 26.4976 125.855 26.5452 126.161 26.5452C126.393 26.5452 126.603 26.5282 126.794 26.4942C126.991 26.4602 127.141 26.4296 127.243 26.4024L127.865 29.2898C127.668 29.3578 127.386 29.4327 127.018 29.5143C126.658 29.5959 126.216 29.6435 125.692 29.6571C124.767 29.6843 123.934 29.5449 123.192 29.2388C122.451 28.9259 121.862 28.443 121.427 27.79C120.999 27.137 120.788 26.3208 120.795 25.3413V10.0164ZM138.435 29.4429V8.54712H146.435C147.945 8.54712 149.2 8.78519 150.2 9.26133C151.206 9.73067 151.958 10.3735 152.454 11.1897C152.958 12.0059 153.209 12.931 153.209 13.9649C153.209 14.8152 153.046 15.543 152.72 16.1484C152.393 16.7469 151.954 17.2333 151.404 17.6074C150.853 17.9815 150.237 18.2502 149.557 18.4134V18.6175C150.298 18.6583 151.009 18.8862 151.689 19.3011C152.376 19.7092 152.937 20.2874 153.373 21.0356C153.808 21.7838 154.026 22.6885 154.026 23.7496C154.026 24.8311 153.764 25.8038 153.24 26.6677C152.716 27.5247 151.927 28.2015 150.873 28.6981C149.819 29.1946 148.492 29.4429 146.894 29.4429H138.435ZM142.221 26.2799H146.292C147.666 26.2799 148.656 26.0181 149.261 25.4943C149.873 24.9638 150.179 24.2836 150.179 23.4537C150.179 22.8347 150.026 22.277 149.72 21.7804C149.414 21.2771 148.979 20.8826 148.414 20.5969C147.849 20.3044 147.176 20.1581 146.394 20.1581H142.221V26.2799ZM142.221 17.4339H145.965C146.618 17.4339 147.207 17.3149 147.73 17.0768C148.254 16.832 148.666 16.4885 148.965 16.0463C149.271 15.5974 149.424 15.0668 149.424 14.4547C149.424 13.6452 149.138 12.9786 148.567 12.4549C148.003 11.9311 147.162 11.6692 146.047 11.6692H142.221V17.4339ZM162.032 29.8C161.087 29.8 160.223 29.6163 159.441 29.249C158.659 28.8749 158.036 28.3375 157.574 27.6369C157.111 26.9295 156.88 26.0725 156.88 25.0658C156.88 24.2904 157.026 23.6374 157.319 23.1068C157.611 22.5763 158.026 22.1409 158.563 21.8008C159.101 21.4607 159.737 21.192 160.471 20.9948C161.206 20.7975 162.015 20.6445 162.9 20.5357C163.777 20.4268 164.519 20.3316 165.124 20.25C165.736 20.1683 166.202 20.0391 166.522 19.8623C166.842 19.6854 167.001 19.3997 167.001 19.0052V18.6379C167.001 17.57 166.682 16.7299 166.042 16.1177C165.41 15.4988 164.498 15.1893 163.308 15.1893C162.179 15.1893 161.257 15.4376 160.543 15.9341C159.835 16.4306 159.339 17.0156 159.053 17.689L157.329 17.0666C157.683 16.2096 158.172 15.526 158.798 15.0158C159.424 14.4989 160.125 14.1282 160.9 13.9037C161.675 13.6724 162.461 13.5568 163.257 13.5568C163.855 13.5568 164.478 13.635 165.124 13.7915C165.777 13.9479 166.382 14.22 166.94 14.6077C167.498 14.9886 167.95 15.5226 168.297 16.2096C168.644 16.8898 168.817 17.7536 168.817 18.8011V29.4429H167.001V26.9635H166.889C166.671 27.4261 166.348 27.875 165.92 28.3103C165.491 28.7457 164.954 29.1028 164.308 29.3817C163.662 29.6605 162.903 29.8 162.032 29.8ZM162.277 28.1369C163.243 28.1369 164.08 27.9226 164.787 27.4941C165.495 27.0656 166.039 26.4976 166.42 25.7902C166.807 25.076 167.001 24.2904 167.001 23.4333V21.1682C166.865 21.2975 166.637 21.4131 166.318 21.5151C166.005 21.6172 165.641 21.709 165.226 21.7906C164.818 21.8654 164.41 21.9301 164.002 21.9845C163.594 22.0389 163.226 22.0865 162.9 22.1273C162.015 22.2362 161.26 22.4062 160.635 22.6375C160.009 22.8687 159.529 23.1884 159.196 23.5966C158.863 23.9979 158.696 24.5148 158.696 25.1474C158.696 26.0997 159.036 26.8377 159.716 27.3615C160.397 27.8784 161.25 28.1369 162.277 28.1369ZM174.353 35.3198C173.992 35.3198 173.655 35.2858 173.343 35.2178C173.03 35.1498 172.781 35.0749 172.598 34.9933L173.087 33.3914C173.706 33.5819 174.257 33.6499 174.74 33.5955C175.223 33.5479 175.652 33.3302 176.026 32.9425C176.4 32.5616 176.733 31.9766 177.026 31.1876L177.597 29.5959L171.832 13.7711H173.802L178.454 27.0452H178.597L183.25 13.7711H185.219L178.587 31.9222C178.308 32.6772 177.964 33.3064 177.556 33.8098C177.148 34.3199 176.675 34.6974 176.138 34.9423C175.608 35.194 175.012 35.3198 174.353 35.3198Z" fill="white"/>
<defs>
<linearGradient id="paint0_linear_400_262" x1="2.92969" y1="19.4823" x2="30.2143" y2="19.4823" gradientUnits="userSpaceOnUse">
<stop stop-color="#3A4EFB"/>
<stop offset="1" stop-color="#33A4FA"/>
</linearGradient>
<linearGradient id="paint1_linear_400_262" x1="14.8984" y1="25.2194" x2="19.4527" y2="25.2194" gradientUnits="userSpaceOnUse">
<stop stop-color="#3A4EFB"/>
<stop offset="1" stop-color="#33A4FA"/>
</linearGradient>
<linearGradient id="paint2_linear_400_262" x1="14.8984" y1="18.24" x2="19.4581" y2="18.24" gradientUnits="userSpaceOnUse">
<stop stop-color="#3A4EFB"/>
<stop offset="1" stop-color="#33A4FA"/>
</linearGradient>
<linearGradient id="paint3_linear_400_262" x1="21.1719" y1="15.0678" x2="34.1928" y2="15.0678" gradientUnits="userSpaceOnUse">
<stop stop-color="#3A4EFB"/>
<stop offset="1" stop-color="#33A4FA"/>
</linearGradient>
</defs>
</svg>
