<svg width="257" height="52" viewBox="0 0 257 52" fill="none" xmlns="http://www.w3.org/2000/svg">
<rect x="0.469444" y="0.469444" width="51.0611" height="51.0611" rx="8.91945" fill="white"/>
<rect x="0.469444" y="0.469444" width="51.0611" height="51.0611" rx="8.91945" stroke="white" stroke-width="0.938889"/>
<path d="M41.4617 19.1426L38.0172 21.6356H39.7985C38.4671 23.8483 32.6329 27.1674 25.2276 29.6752C16.3398 32.6956 8.56574 33.4553 7.85767 31.3753C7.51838 30.3833 8.86077 28.9192 11.3243 27.3186V25.5706C6.43045 28.1963 3.51334 30.9032 4.09233 32.655C5.00693 35.3508 13.9648 34.746 24.0954 31.3052C32.4006 28.4803 38.917 24.6265 40.4881 21.8421L41.4691 23.1107L41.4617 19.1426Z" fill="url(#paint0_linear_321_4986)"/>
<path fill-rule="evenodd" clip-rule="evenodd" d="M38.8801 22.207C37.3828 23.7891 34.0858 25.729 29.878 27.5028L29.0703 27.5692V22.6311L30.2541 22.6127C31.39 22.5906 33.2376 22.5426 35.3213 22.4357C36.4608 22.3767 37.6742 22.3029 38.8801 22.207Z" fill="url(#paint1_linear_321_4986)"/>
<path fill-rule="evenodd" clip-rule="evenodd" d="M46.9226 20.8691C46.9226 20.8691 46.2108 26.1502 37.6439 26.8583L34.5977 27.1127C37.4041 25.5269 39.4952 23.9153 40.4983 22.4807L41.8222 24.1956V21.9202C43.3341 21.7725 44.8307 21.4961 46.2956 21.0941L46.3915 21.0646C46.5907 20.9982 46.764 20.9355 46.9226 20.8691Z" fill="url(#paint2_linear_321_4986)"/>
<path d="M18.2401 31.0077V25.4058C18.2401 25.0537 18.1002 24.716 17.8513 24.467C17.6023 24.218 17.2646 24.0781 16.9125 24.0781H13.3205C12.9706 24.082 12.6363 24.2235 12.3899 24.4719C12.1435 24.7204 12.0049 25.0559 12.0039 25.4058V31.9149C14.1056 31.7993 16.1926 31.4957 18.2401 31.0077Z" fill="url(#paint3_linear_321_4986)"/>
<path d="M47.3163 28.1214C47.0422 27.5337 46.698 26.9814 46.2911 26.4766C43.2929 27.6641 39.3726 27.7489 35.3233 27.6641L34.1985 27.6346C32.5321 28.5398 30.8212 29.3608 29.0724 30.0944V37.5292C29.0649 37.6226 29.0778 37.7165 29.1103 37.8043C29.1428 37.8922 29.194 37.972 29.2605 38.0381C29.4014 38.1534 29.5801 38.2126 29.762 38.204H41.1281C42.0387 38.2021 42.9382 38.0034 43.7649 37.6214C44.5852 37.2556 45.3285 36.7375 45.9555 36.0946C46.5793 35.4415 47.0791 34.6805 47.4307 33.8486C47.7954 32.9917 47.9811 32.0693 47.9765 31.1381C47.9835 30.0959 47.758 29.0653 47.3163 28.1214ZM41.5632 31.9051C41.4503 32.2157 41.2759 32.5004 41.0506 32.7423C40.8359 32.9882 40.5754 33.1898 40.2835 33.336C39.9831 33.484 39.6522 33.5598 39.3173 33.5573H35.3233V28.3131H39.3173C39.6552 28.3098 39.9886 28.3909 40.2872 28.5492C40.5805 28.6997 40.8431 28.9035 41.0617 29.1503C41.2776 29.3998 41.4474 29.6858 41.5632 29.9948C41.6829 30.294 41.7454 30.613 41.7476 30.9352C41.7474 31.2672 41.6849 31.5962 41.5632 31.9051Z" fill="url(#paint4_linear_321_4986)"/>
<path d="M17.0711 35.198H18.2401V33.6602C16.1876 34.1683 14.1046 34.544 12.0039 34.785V38.2036H18.2401V36.7063L17.0711 35.198Z" fill="url(#paint5_linear_321_4986)"/>
<path d="M24.292 31.892C22.9975 32.3309 21.7105 32.7292 20.4492 33.0832V35.2001H21.7289L20.4492 36.8486V38.2057H26.7002V31.0254C25.9147 31.3241 25.1107 31.6155 24.292 31.892Z" fill="url(#paint6_linear_321_4986)"/>
<path d="M25.6012 22.6267L26.7076 21.2106V20.8602C26.7076 20.5316 26.577 20.2164 26.3446 19.984C26.1122 19.7516 25.7971 19.6211 25.4684 19.6211H21.6883C21.3597 19.6211 21.0445 19.7516 20.8122 19.984C20.5798 20.2164 20.4492 20.5316 20.4492 20.8602V30.4487C21.9244 30.0578 23.4696 29.5931 25.0222 29.0658C25.5975 28.8703 26.1544 28.6712 26.7002 28.472V22.6267H25.6012Z" fill="url(#paint7_linear_321_4986)"/>
<path d="M46.9262 20.566C46.9262 20.6692 46.9262 20.7725 46.9262 20.8684C46.7565 20.9384 46.5795 21.0011 46.4025 21.0638L46.3066 21.0933C44.8563 21.5485 43.3572 21.8308 41.8406 21.9342V18.4233L40.4945 19.3969C40.4251 19.2949 40.3461 19.1998 40.2585 19.1129C40.047 18.9019 39.7965 18.734 39.5209 18.6188C39.215 18.4965 38.8878 18.4364 38.5584 18.4417H35.3241V24.5157C33.3107 25.6835 31.2154 26.704 29.0547 27.5693V22.6312H30.2533V22.6127L29.7628 21.9784L29.0694 21.0859V15.3919C29.0694 14.9683 29.2377 14.5622 29.5371 14.2627C29.8366 13.9632 30.2428 13.795 30.6663 13.795H40.1884C41.0829 13.7908 41.9688 13.9689 42.7921 14.3187C43.5914 14.6605 44.3185 15.1511 44.9347 15.7643C45.5578 16.3828 46.0583 17.1136 46.4099 17.9181C46.7602 18.7564 46.9359 19.6574 46.9262 20.566Z" fill="url(#paint8_linear_321_4986)"/>
<path d="M68.6923 11.8196V40.5H63.4968V11.8196H68.6923ZM79.1639 27.8963V40.5H74.0944V18.9897H78.9398V22.6447H79.1919C79.6867 21.4404 80.4756 20.4834 81.5586 19.7739C82.6509 19.0644 84 18.7096 85.6058 18.7096C87.0902 18.7096 88.3833 19.027 89.4849 19.6619C90.5959 20.2967 91.4549 21.2163 92.0617 22.4207C92.6779 23.625 92.9813 25.0861 92.972 26.804V40.5H87.9025V27.5882C87.9025 26.1504 87.529 25.0254 86.7822 24.2132C86.0446 23.401 85.0223 22.9949 83.7152 22.9949C82.8283 22.9949 82.0394 23.1909 81.3486 23.583C80.667 23.9658 80.1302 24.5213 79.7381 25.2495C79.3553 25.9777 79.1639 26.86 79.1639 27.8963ZM116.569 18.9897L108.909 40.5H103.307L95.6468 18.9897H101.052L105.996 34.9684H106.22L111.177 18.9897H116.569ZM128.868 40.9201C126.711 40.9201 124.849 40.472 123.28 39.5757C121.721 38.6701 120.522 37.3911 119.681 35.7386C118.841 34.0768 118.421 32.1209 118.421 29.8709C118.421 27.6582 118.841 25.7163 119.681 24.0452C120.531 22.3647 121.717 21.0576 123.238 20.124C124.76 19.1811 126.548 18.7096 128.602 18.7096C129.928 18.7096 131.179 18.9243 132.355 19.3538C133.541 19.7739 134.586 20.4274 135.492 21.3144C136.407 22.2013 137.126 23.3309 137.649 24.7034C138.171 26.0664 138.433 27.6909 138.433 29.5768V31.1312H120.802V27.7142H133.573C133.564 26.7433 133.354 25.8797 132.943 25.1235C132.532 24.3579 131.958 23.7557 131.221 23.3169C130.493 22.8781 129.643 22.6588 128.672 22.6588C127.636 22.6588 126.725 22.9108 125.941 23.415C125.157 23.9098 124.545 24.5633 124.107 25.3756C123.677 26.1785 123.458 27.0607 123.448 28.0223V31.0052C123.448 32.2562 123.677 33.3299 124.135 34.2262C124.592 35.1131 125.232 35.7946 126.053 36.2708C126.875 36.7376 127.836 36.971 128.938 36.971C129.676 36.971 130.343 36.8683 130.941 36.6629C131.538 36.4481 132.056 36.1354 132.495 35.7246C132.934 35.3138 133.265 34.805 133.489 34.1981L138.223 34.7303C137.924 35.9813 137.355 37.0737 136.514 38.0073C135.683 38.9315 134.619 39.6504 133.321 40.1639C132.024 40.668 130.539 40.9201 128.868 40.9201ZM159.723 24.6753L155.101 25.1795C154.971 24.7127 154.742 24.2739 154.415 23.8631C154.098 23.4523 153.668 23.1209 153.127 22.8688C152.585 22.6167 151.922 22.4907 151.138 22.4907C150.083 22.4907 149.196 22.7194 148.477 23.1769C147.768 23.6344 147.418 24.2272 147.427 24.9554C147.418 25.5809 147.646 26.0898 148.113 26.4819C148.589 26.874 149.374 27.1961 150.466 27.4482L154.135 28.2324C156.17 28.6712 157.683 29.3667 158.672 30.319C159.671 31.2713 160.175 32.5177 160.185 34.0581C160.175 35.4118 159.779 36.6069 158.994 37.6432C158.22 38.6701 157.141 39.473 155.759 40.0519C154.378 40.6307 152.791 40.9201 150.998 40.9201C148.365 40.9201 146.246 40.3693 144.64 39.2676C143.034 38.1566 142.077 36.6115 141.769 34.6323L146.713 34.1561C146.937 35.1271 147.413 35.86 148.141 36.3548C148.869 36.8496 149.817 37.097 150.984 37.097C152.188 37.097 153.155 36.8496 153.883 36.3548C154.62 35.86 154.989 35.2485 154.989 34.5202C154.989 33.9041 154.751 33.3952 154.275 32.9938C153.808 32.5923 153.08 32.2842 152.09 32.0695L148.421 31.2993C146.358 30.8698 144.832 30.1463 143.842 29.1287C142.852 28.1017 142.362 26.804 142.372 25.2355C142.362 23.9098 142.722 22.7614 143.45 21.7905C144.187 20.8102 145.21 20.054 146.517 19.5218C147.833 18.9803 149.35 18.7096 151.068 18.7096C153.589 18.7096 155.573 19.2464 157.02 20.3201C158.476 21.3937 159.377 22.8455 159.723 24.6753ZM175.106 18.9897V22.9108H162.74V18.9897H175.106ZM165.793 13.8362H170.863V34.0301C170.863 34.7116 170.966 35.2345 171.171 35.5986C171.386 35.9533 171.666 36.1961 172.011 36.3268C172.357 36.4575 172.739 36.5228 173.16 36.5228C173.477 36.5228 173.766 36.4995 174.028 36.4528C174.299 36.4061 174.504 36.3641 174.644 36.3268L175.498 40.2899C175.228 40.3833 174.84 40.486 174.336 40.598C173.841 40.7101 173.234 40.7754 172.515 40.7941C171.246 40.8314 170.102 40.64 169.084 40.2199C168.067 39.7905 167.259 39.1276 166.662 38.2313C166.073 37.3351 165.784 36.2147 165.793 34.8703V13.8362ZM222.395 40.9901C221.097 40.9901 219.911 40.7381 218.837 40.2339C217.764 39.7204 216.91 38.9829 216.275 38.0213C215.64 37.0503 215.322 35.874 215.322 34.4922C215.322 33.4279 215.523 32.5317 215.925 31.8034C216.326 31.0752 216.896 30.4777 217.633 30.0109C218.371 29.5441 219.244 29.1753 220.252 28.9046C221.26 28.6338 222.371 28.4238 223.585 28.2744C224.789 28.125 225.807 27.9943 226.638 27.8823C227.478 27.7703 228.118 27.5929 228.556 27.3501C228.995 27.1074 229.215 26.7153 229.215 26.1738V25.6696C229.215 24.2039 228.776 23.0509 227.898 22.2106C227.03 21.361 225.779 20.9362 224.145 20.9362C222.595 20.9362 221.33 21.277 220.35 21.9585C219.379 22.6401 218.697 23.443 218.305 24.3673L215.939 23.513C216.424 22.3367 217.096 21.3984 217.955 20.6982C218.814 19.9886 219.776 19.4798 220.84 19.1717C221.904 18.8543 222.983 18.6956 224.075 18.6956C224.897 18.6956 225.751 18.803 226.638 19.0177C227.534 19.2324 228.365 19.6059 229.131 20.138C229.896 20.6608 230.517 21.3937 230.993 22.3367C231.469 23.2703 231.707 24.4559 231.707 25.8937V40.5H229.215V37.097H229.061C228.762 37.7319 228.318 38.348 227.73 38.9455C227.142 39.5431 226.404 40.0332 225.517 40.416C224.631 40.7988 223.59 40.9901 222.395 40.9901ZM222.731 38.7075C224.056 38.7075 225.205 38.4134 226.176 37.8252C227.147 37.237 227.893 36.4575 228.416 35.4865C228.948 34.5062 229.215 33.4279 229.215 32.2516V29.1427C229.028 29.32 228.715 29.4788 228.276 29.6188C227.847 29.7588 227.347 29.8849 226.778 29.9969C226.218 30.0996 225.658 30.1883 225.097 30.263C224.537 30.3377 224.033 30.403 223.585 30.459C222.371 30.6084 221.335 30.8418 220.476 31.1593C219.617 31.4767 218.959 31.9155 218.501 32.4756C218.044 33.0265 217.815 33.736 217.815 34.6043C217.815 35.9113 218.282 36.9243 219.216 37.6432C220.149 38.3527 221.321 38.7075 222.731 38.7075ZM239.305 48.5664C238.81 48.5664 238.348 48.5197 237.918 48.4263C237.489 48.333 237.148 48.2303 236.896 48.1182L237.568 45.9196C238.418 46.181 239.174 46.2744 239.837 46.1997C240.5 46.1343 241.088 45.8356 241.601 45.3034C242.115 44.7806 242.572 43.9777 242.974 42.8947L243.758 40.7101L235.845 18.9897H238.548L244.934 37.209H245.13L251.516 18.9897H254.219L245.116 43.903C244.733 44.9393 244.262 45.8029 243.702 46.4938C243.142 47.194 242.493 47.7121 241.755 48.0482C241.027 48.3937 240.21 48.5664 239.305 48.5664Z" fill="white"/>
<path d="M190.007 40.5V11.8196H200.986C203.058 11.8196 204.781 12.1463 206.153 12.7999C207.535 13.444 208.567 14.3263 209.248 15.4466C209.939 16.567 210.284 17.8367 210.284 19.2558C210.284 20.4228 210.06 21.4217 209.612 22.2526C209.164 23.0742 208.562 23.7417 207.806 24.2552C207.05 24.7687 206.205 25.1375 205.271 25.3615V25.6416C206.289 25.6976 207.264 26.0104 208.198 26.5799C209.141 27.1401 209.911 27.9336 210.509 28.9606C211.106 29.9876 211.405 31.2293 211.405 32.6857C211.405 34.1701 211.045 35.5052 210.326 36.6909C209.608 37.8672 208.525 38.7962 207.078 39.4777C205.63 40.1592 203.81 40.5 201.616 40.5H190.007ZM195.202 36.1587H200.79C202.676 36.1587 204.034 35.7993 204.865 35.0804C205.705 34.3522 206.125 33.4186 206.125 32.2796C206.125 31.43 205.915 30.6644 205.495 29.9829C205.075 29.292 204.477 28.7505 203.703 28.3584C202.928 27.957 202.003 27.7563 200.93 27.7563H195.202V36.1587ZM195.202 24.0172H200.342C201.238 24.0172 202.045 23.8538 202.764 23.527C203.483 23.1909 204.048 22.7194 204.459 22.1126C204.879 21.4964 205.089 20.7682 205.089 19.9279C205.089 18.817 204.697 17.902 203.913 17.1831C203.138 16.4643 201.985 16.1048 200.454 16.1048H195.202V24.0172Z" fill="url(#paint9_linear_321_4986)"/>
<defs>
<linearGradient id="paint0_linear_321_4986" x1="4.01953" y1="26.741" x2="41.4691" y2="26.741" gradientUnits="userSpaceOnUse">
<stop stop-color="#3A4EFB"/>
<stop offset="1" stop-color="#33A4FA"/>
</linearGradient>
<linearGradient id="paint1_linear_321_4986" x1="33.9752" y1="22.207" x2="33.9752" y2="27.5692" gradientUnits="userSpaceOnUse">
<stop stop-color="#6C6D6F"/>
<stop offset="1" stop-color="#0F1215"/>
</linearGradient>
<linearGradient id="paint2_linear_321_4986" x1="40.7601" y1="20.8691" x2="40.7601" y2="27.1127" gradientUnits="userSpaceOnUse">
<stop stop-color="#6C6D6F"/>
<stop offset="1" stop-color="#0F1215"/>
</linearGradient>
<linearGradient id="paint3_linear_321_4986" x1="15.122" y1="24.0781" x2="15.122" y2="31.9149" gradientUnits="userSpaceOnUse">
<stop stop-color="#6C6D6F"/>
<stop offset="1" stop-color="#0F1215"/>
</linearGradient>
<linearGradient id="paint4_linear_321_4986" x1="38.5235" y1="26.4766" x2="38.5235" y2="38.2048" gradientUnits="userSpaceOnUse">
<stop stop-color="#6C6D6F"/>
<stop offset="1" stop-color="#0F1215"/>
</linearGradient>
<linearGradient id="paint5_linear_321_4986" x1="15.122" y1="33.6602" x2="15.122" y2="38.2036" gradientUnits="userSpaceOnUse">
<stop stop-color="#6C6D6F"/>
<stop offset="1" stop-color="#0F1215"/>
</linearGradient>
<linearGradient id="paint6_linear_321_4986" x1="20.4492" y1="34.6155" x2="26.7002" y2="34.6155" gradientUnits="userSpaceOnUse">
<stop stop-color="#3A4EFB"/>
<stop offset="1" stop-color="#33A4FA"/>
</linearGradient>
<linearGradient id="paint7_linear_321_4986" x1="20.4492" y1="25.0349" x2="26.7076" y2="25.0349" gradientUnits="userSpaceOnUse">
<stop stop-color="#3A4EFB"/>
<stop offset="1" stop-color="#33A4FA"/>
</linearGradient>
<linearGradient id="paint8_linear_321_4986" x1="29.0547" y1="20.6821" x2="46.9266" y2="20.6821" gradientUnits="userSpaceOnUse">
<stop stop-color="#3A4EFB"/>
<stop offset="1" stop-color="#33A4FA"/>
</linearGradient>
<linearGradient id="paint9_linear_321_4986" x1="60.668" y1="26" x2="256.668" y2="26" gradientUnits="userSpaceOnUse">
<stop stop-color="#3A4EFB"/>
<stop offset="1" stop-color="#33A4FA"/>
</linearGradient>
</defs>
</svg>
