<svg width="38" height="38" viewBox="0 0 38 38" fill="none" xmlns="http://www.w3.org/2000/svg">
<rect width="37.8857" height="37.8857" rx="6.84048" fill="white"/>
<path d="M30.209 13.9463L27.6994 15.7626H28.9972C28.0272 17.3748 23.7766 19.793 18.3813 21.62C11.9059 23.8206 6.24193 24.3741 5.72604 22.8587C5.47885 22.1359 6.45688 21.0692 8.25172 19.9031V18.6295C4.68622 20.5426 2.56089 22.5148 2.98273 23.791C3.64908 25.7552 10.1755 25.3145 17.5564 22.8076C23.6073 20.7495 28.355 17.9417 29.4996 15.9131L30.2143 16.8374L30.209 13.9463Z" fill="url(#paint0_linear_400_263)"/>
<path fill-rule="evenodd" clip-rule="evenodd" d="M28.3268 16.1797C27.2359 17.3324 24.8339 18.7457 21.7681 20.0381L21.1797 20.0864V16.4887L22.0422 16.4752C22.8697 16.4591 24.2159 16.4242 25.734 16.3463C26.5642 16.3033 27.4482 16.2495 28.3268 16.1797Z" fill="#444444"/>
<path fill-rule="evenodd" clip-rule="evenodd" d="M34.1827 15.2041C34.1827 15.2041 33.6641 19.0517 27.4225 19.5676L25.2031 19.753C27.2478 18.5976 28.7713 17.4235 29.5021 16.3783L30.4667 17.6277V15.9699C31.5683 15.8622 32.6586 15.6609 33.7259 15.368L33.7958 15.3465C33.9409 15.2981 34.0672 15.2525 34.1827 15.2041Z" fill="#444444"/>
<path d="M13.2857 22.5902V18.5088C13.2857 18.2522 13.1838 18.0062 13.0024 17.8248C12.821 17.6434 12.575 17.5415 12.3184 17.5415H9.70141C9.44649 17.5443 9.20293 17.6474 9.02342 17.8284C8.84391 18.0094 8.74288 18.2538 8.74219 18.5088V23.2511C10.2734 23.1669 11.794 22.9457 13.2857 22.5902Z" fill="#444444"/>
<path d="M34.4732 20.4886C34.2735 20.0605 34.0227 19.6581 33.7263 19.2903C31.5418 20.1555 28.6857 20.2173 25.7355 20.1555L24.916 20.134C23.7018 20.7935 22.4553 21.3916 21.1812 21.9261V27.3429C21.1757 27.4109 21.1852 27.4794 21.2088 27.5434C21.2325 27.6074 21.2698 27.6655 21.3182 27.7137C21.4209 27.7977 21.5511 27.8408 21.6836 27.8346H29.9646C30.6281 27.8332 31.2835 27.6884 31.8858 27.4101C32.4834 27.1436 33.0249 26.7661 33.4818 26.2977C33.9362 25.8219 34.3004 25.2674 34.5565 24.6614C34.8223 24.0371 34.9576 23.365 34.9542 22.6865C34.9593 21.9272 34.795 21.1764 34.4732 20.4886ZM30.2817 23.2454C30.1994 23.4717 30.0723 23.6791 29.9082 23.8553C29.7518 24.0345 29.562 24.1814 29.3493 24.2879C29.1304 24.3957 28.8894 24.4509 28.6454 24.4491H25.7355V20.6284H28.6454C28.8916 20.6259 29.1345 20.685 29.352 20.8003C29.5657 20.91 29.757 21.0585 29.9163 21.2383C30.0736 21.4201 30.1973 21.6284 30.2817 21.8536C30.3688 22.0716 30.4144 22.304 30.416 22.5387C30.4159 22.7806 30.3703 23.0203 30.2817 23.2454Z" fill="#444444"/>
<path d="M12.434 25.6446H13.2857V24.5242C11.7903 24.8944 10.2727 25.1681 8.74219 25.3437V27.8344H13.2857V26.7435L12.434 25.6446Z" fill="#444444"/>
<path d="M17.6982 23.2352C16.7551 23.5549 15.8174 23.8451 14.8984 24.103V25.6453H15.8308L14.8984 26.8464V27.8351H19.4527V22.6038C18.8804 22.8214 18.2947 23.0337 17.6982 23.2352Z" fill="url(#paint1_linear_400_263)"/>
<path d="M18.652 16.4855L19.4581 15.4537V15.1984C19.4581 14.959 19.363 14.7294 19.1937 14.5601C19.0244 14.3908 18.7947 14.2957 18.5553 14.2957H15.8012C15.5618 14.2957 15.3322 14.3908 15.1629 14.5601C14.9936 14.7294 14.8984 14.959 14.8984 15.1984V22.1844C15.9732 21.8995 17.099 21.561 18.2302 21.1768C18.6493 21.0344 19.0551 20.8893 19.4527 20.7442V16.4855H18.652Z" fill="url(#paint2_linear_400_263)"/>
<path d="M34.1925 14.9832C34.1925 15.0585 34.1925 15.1337 34.1925 15.2036C34.0689 15.2546 33.94 15.3003 33.811 15.346L33.7411 15.3675C32.6845 15.6991 31.5923 15.9047 30.4873 15.9801V13.4221L29.5066 14.1315C29.456 14.0572 29.3984 13.9879 29.3346 13.9246C29.1806 13.7708 28.9981 13.6485 28.7973 13.5646C28.5744 13.4755 28.336 13.4317 28.096 13.4356H25.7396V17.8609C24.2727 18.7117 22.7461 19.4552 21.1719 20.0856V16.4879H22.0451V16.4745L21.6878 16.0123L21.1826 15.3621V11.2135C21.1826 10.905 21.3052 10.609 21.5234 10.3909C21.7416 10.1727 22.0375 10.0501 22.346 10.0501H29.2836C29.9353 10.047 30.5807 10.1768 31.1805 10.4316C31.7629 10.6807 32.2927 11.0381 32.7416 11.4849C33.1956 11.9355 33.5603 12.4679 33.8164 13.054C34.0716 13.6648 34.1996 14.3213 34.1925 14.9832Z" fill="url(#paint3_linear_400_263)"/>
<defs>
<linearGradient id="paint0_linear_400_263" x1="2.92969" y1="19.4823" x2="30.2143" y2="19.4823" gradientUnits="userSpaceOnUse">
<stop stop-color="#3A4EFB"/>
<stop offset="1" stop-color="#33A4FA"/>
</linearGradient>
<linearGradient id="paint1_linear_400_263" x1="14.8984" y1="25.2194" x2="19.4527" y2="25.2194" gradientUnits="userSpaceOnUse">
<stop stop-color="#3A4EFB"/>
<stop offset="1" stop-color="#33A4FA"/>
</linearGradient>
<linearGradient id="paint2_linear_400_263" x1="14.8984" y1="18.24" x2="19.4581" y2="18.24" gradientUnits="userSpaceOnUse">
<stop stop-color="#3A4EFB"/>
<stop offset="1" stop-color="#33A4FA"/>
</linearGradient>
<linearGradient id="paint3_linear_400_263" x1="21.1719" y1="15.0678" x2="34.1928" y2="15.0678" gradientUnits="userSpaceOnUse">
<stop stop-color="#3A4EFB"/>
<stop offset="1" stop-color="#33A4FA"/>
</linearGradient>
</defs>
</svg>
