<svg width="40" height="40" viewBox="0 0 40 40" fill="none" xmlns="http://www.w3.org/2000/svg">
<rect x="0.35577" y="0.35577" width="38.6968" height="38.6968" rx="6.75962" fill="white"/>
<rect x="0.35577" y="0.35577" width="38.6968" height="38.6968" rx="6.75962" stroke="#181818" stroke-width="0.711539"/>
<path d="M31.4224 14.5068L28.812 16.3962H30.1619C29.1529 18.0731 24.7314 20.5885 19.1193 22.489C12.3837 24.778 6.49211 25.3537 5.95549 23.7774C5.69836 23.0256 6.7157 21.916 8.58267 20.7031V19.3783C4.87388 21.3682 2.66313 23.4197 3.10193 24.7472C3.79506 26.7903 10.5838 26.3319 18.2613 23.7243C24.5554 21.5835 29.4939 18.6628 30.6845 16.5527L31.428 17.5141L31.4224 14.5068Z" fill="#00C56F"/>
<path fill-rule="evenodd" clip-rule="evenodd" d="M29.4677 16.8296C28.3329 18.0286 25.8343 19.4987 22.6454 20.843L22.0333 20.8933V17.151L22.9304 17.137C23.7913 17.1203 25.1915 17.0839 26.7706 17.0029C27.6342 16.9582 28.5537 16.9023 29.4677 16.8296Z" fill="#181818"/>
<path fill-rule="evenodd" clip-rule="evenodd" d="M35.5592 15.8152C35.5592 15.8152 35.0197 19.8174 28.5273 20.3541L26.2187 20.5469C28.3456 19.3451 29.9303 18.1238 30.6905 17.0365L31.6938 18.3362V16.6117C32.8396 16.4998 33.9738 16.2903 35.084 15.9857L35.1567 15.9633C35.3076 15.913 35.439 15.8655 35.5592 15.8152Z" fill="#181818"/>
<path d="M13.8227 23.4981V19.2527C13.8227 18.9859 13.7167 18.73 13.528 18.5413C13.3393 18.3526 13.0834 18.2466 12.8165 18.2466H10.0943C9.82918 18.2495 9.57583 18.3567 9.3891 18.545C9.20238 18.7333 9.09729 18.9876 9.09657 19.2527V24.1857C10.6893 24.0981 12.271 23.868 13.8227 23.4981Z" fill="#181818"/>
<path d="M35.8611 21.3122C35.6534 20.8668 35.3925 20.4483 35.0841 20.0657C32.8119 20.9656 29.8409 21.0299 26.7722 20.9656L25.9197 20.9433C24.6568 21.6293 23.3602 22.2515 22.0349 22.8074V28.4419C22.0292 28.5127 22.039 28.5839 22.0636 28.6505C22.0882 28.7171 22.1271 28.7775 22.1774 28.8276C22.2842 28.915 22.4196 28.9598 22.5575 28.9534H31.1713C31.8614 28.9519 32.5431 28.8013 33.1696 28.5118C33.7913 28.2346 34.3546 27.842 34.8298 27.3547C35.3025 26.8598 35.6813 26.2831 35.9477 25.6526C36.2241 25.0032 36.3649 24.3042 36.3614 23.5984C36.3667 22.8086 36.1958 22.0276 35.8611 21.3122ZM31.5011 24.1797C31.4155 24.4151 31.2833 24.6309 31.1126 24.8142C30.9499 25.0005 30.7524 25.1533 30.5313 25.2641C30.3036 25.3763 30.0528 25.4337 29.799 25.4318H26.7722V21.4575H29.799C30.0551 21.455 30.3078 21.5165 30.5341 21.6364C30.7563 21.7504 30.9554 21.9049 31.121 22.092C31.2846 22.2811 31.4133 22.4978 31.5011 22.732C31.5917 22.9587 31.6391 23.2005 31.6408 23.4447C31.6407 23.6963 31.5933 23.9456 31.5011 24.1797Z" fill="#181818"/>
<path d="M12.9367 26.6747H13.8227V25.5093C12.2672 25.8944 10.6886 26.1791 9.09657 26.3617V28.9526H13.8227V27.8178L12.9367 26.6747Z" fill="#181818"/>
<path d="M18.4106 24.169C17.4296 24.5016 16.4542 24.8034 15.4984 25.0717V26.676H16.4682L15.4984 27.9253V28.9538H20.2357V23.5122C19.6404 23.7386 19.0311 23.9594 18.4106 24.169Z" fill="#00C56F"/>
<path d="M19.4028 17.1482L20.2413 16.075V15.8094C20.2413 15.5604 20.1423 15.3215 19.9662 15.1454C19.7901 14.9693 19.5512 14.8704 19.3022 14.8704H16.4374C16.1884 14.8704 15.9495 14.9693 15.7734 15.1454C15.5973 15.3215 15.4984 15.5604 15.4984 15.8094V23.0761C16.6163 22.7799 17.7874 22.4277 18.964 22.028C19.4 21.8799 19.822 21.729 20.2357 21.5781V17.1482H19.4028Z" fill="#00C56F"/>
<path d="M35.5646 15.5858C35.5646 15.664 35.5646 15.7423 35.5646 15.815C35.436 15.8681 35.3018 15.9156 35.1677 15.9631L35.095 15.9855C33.9959 16.3304 32.8598 16.5443 31.7104 16.6227V13.962L30.6903 14.6998C30.6377 14.6225 30.5778 14.5505 30.5114 14.4846C30.3512 14.3247 30.1613 14.1975 29.9524 14.1101C29.7206 14.0175 29.4726 13.9719 29.223 13.9759H26.7719V18.5791C25.246 19.4641 23.6581 20.2375 22.0206 20.8933V17.1509H22.9289V17.1369L22.5572 16.6562L22.0318 15.9799V11.6646C22.0318 11.3436 22.1593 11.0358 22.3862 10.8089C22.6132 10.5819 22.921 10.4544 23.242 10.4544H30.4583C31.1362 10.4512 31.8076 10.5862 32.4315 10.8513C33.0373 11.1103 33.5883 11.4821 34.0553 11.9469C34.5275 12.4156 34.9069 12.9694 35.1733 13.5791C35.4388 14.2144 35.5719 14.8972 35.5646 15.5858Z" fill="#00C56F"/>
</svg>
