<svg width="20" height="20" viewBox="0 0 20 20" fill="none" xmlns="http://www.w3.org/2000/svg">
<path d="M1.66602 14.5833H5.83268" stroke="#5D5D5D" stroke-width="1.5" stroke-miterlimit="10" stroke-linecap="round" stroke-linejoin="round"/>
<path d="M18.3327 5.41667H14.166" stroke="#5D5D5D" stroke-width="1.5" stroke-miterlimit="10" stroke-linecap="round" stroke-linejoin="round"/>
<path d="M10.832 14.5833H18.332" stroke="#5D5D5D" stroke-width="1.5" stroke-miterlimit="10" stroke-linecap="round" stroke-linejoin="round"/>
<path d="M9.16602 5.41667H1.66602" stroke="#5D5D5D" stroke-width="1.5" stroke-miterlimit="10" stroke-linecap="round" stroke-linejoin="round"/>
<path d="M8.33203 16.9999C6.95132 16.9999 5.83203 15.8807 5.83203 14.4999C5.83203 13.1192 6.95132 11.9999 8.33203 11.9999C9.71278 11.9999 10.832 13.1192 10.832 14.4999C10.832 15.8807 9.71278 16.9999 8.33203 16.9999Z" stroke="#5D5D5D" stroke-width="1.5" stroke-miterlimit="10" stroke-linecap="round" stroke-linejoin="round"/>
<path d="M11.666 7.83325C13.0468 7.83325 14.166 6.71397 14.166 5.33325C14.166 3.95254 13.0468 2.83325 11.666 2.83325C10.2853 2.83325 9.16602 3.95254 9.16602 5.33325C9.16602 6.71397 10.2853 7.83325 11.666 7.83325Z" stroke="#5D5D5D" stroke-width="1.5" stroke-miterlimit="10" stroke-linecap="round" stroke-linejoin="round"/>
</svg>
